<svg width="60" height="79" viewBox="0 0 60 79" fill="none" xmlns="http://www.w3.org/2000/svg">
    <path
      d="M55.832 27.9475L54.5718 66.0898C54.4645 69.3565 53.0884 72.4527 50.7356 74.7214C48.3828 76.9901 45.2385 78.2526 41.9701 78.241H18.0268C14.7605 78.2527 11.618 76.992 9.26556 74.726C6.91311 72.4599 5.53559 69.3669 5.42504 66.1024L4.16487 27.9475C4.1373 27.112 4.44278 26.2997 5.0141 25.6894C5.58542 25.0791 6.37579 24.7207 7.21134 24.6931C8.04689 24.6656 8.85917 24.971 9.46948 25.5424C10.0798 26.1137 10.4382 26.904 10.4657 27.7396L11.7259 65.8913C11.7887 67.52 12.4801 69.0611 13.655 70.1907C14.8299 71.3204 16.3969 71.9508 18.0268 71.9496H41.9701C43.6021 71.9507 45.1708 71.3185 46.3461 70.1862C47.5213 69.0538 48.2114 67.5097 48.2709 65.8787L49.5311 27.7396C49.5587 26.904 49.917 26.1137 50.5274 25.5424C51.1377 24.971 51.95 24.6656 52.7855 24.6931C53.6211 24.7207 54.4114 25.0791 54.9827 25.6894C55.5541 26.2997 55.8595 27.112 55.832 27.9475ZM60 15.2544C60 16.09 59.6681 16.8913 59.0773 17.4821C58.4864 18.0729 57.6851 18.4049 56.8496 18.4049H3.15043C2.31489 18.4049 1.51356 18.0729 0.92274 17.4821C0.331919 16.8913 0 16.09 0 15.2544C0 14.4189 0.331919 13.6176 0.92274 13.0267C1.51356 12.4359 2.31489 12.104 3.15043 12.104H12.9168C13.915 12.1067 14.8785 11.7379 15.6198 11.0694C16.3611 10.4009 16.8271 9.48048 16.9273 8.4873C17.1598 6.15751 18.2513 3.99771 19.9892 2.42872C21.7271 0.859735 23.9868 -0.00605926 26.3282 3.1923e-05H33.6687C36.01 -0.00605926 38.2698 0.859735 40.0077 2.42872C41.7456 3.99771 42.8371 6.15751 43.0696 8.4873C43.1697 9.48048 43.6358 10.4009 44.3771 11.0694C45.1184 11.7379 46.0819 12.1067 47.0801 12.104H56.8464C57.682 12.104 58.4833 12.4359 59.0741 13.0267C59.6649 13.6176 59.9968 14.4189 59.9968 15.2544H60ZM22.3964 12.104H37.6067C37.1927 11.1581 36.922 10.1557 36.8034 9.12999C36.7253 8.35343 36.3618 7.63349 35.7832 7.10965C35.2047 6.58581 34.4523 6.29537 33.6718 6.2946H26.3313C25.5509 6.29537 24.7985 6.58581 24.2199 7.10965C23.6413 7.63349 23.2778 8.35343 23.1998 9.12999C23.0802 10.1559 22.8084 11.1582 22.3933 12.104H22.3964ZM25.5689 59.8362V33.0103C25.5689 32.1747 25.237 31.3734 24.6462 30.7826C24.0554 30.1918 23.254 29.8598 22.4185 29.8598C21.5829 29.8598 20.7816 30.1918 20.1908 30.7826C19.6 31.3734 19.268 32.1747 19.268 33.0103V59.8488C19.268 60.6844 19.6 61.4857 20.1908 62.0765C20.7816 62.6673 21.5829 62.9992 22.4185 62.9992C23.254 62.9992 24.0554 62.6673 24.6462 62.0765C25.237 61.4857 25.5689 60.6844 25.5689 59.8488V59.8362ZM40.7351 59.8362V33.0103C40.7351 32.1747 40.4032 31.3734 39.8124 30.7826C39.2215 30.1918 38.4202 29.8598 37.5847 29.8598C36.7491 29.8598 35.9478 30.1918 35.357 30.7826C34.7662 31.3734 34.4342 32.1747 34.4342 33.0103V59.8488C34.4342 60.6844 34.7662 61.4857 35.357 62.0765C35.9478 62.6673 36.7491 62.9992 37.5847 62.9992C38.4202 62.9992 39.2215 62.6673 39.8124 62.0765C40.4032 61.4857 40.7351 60.6844 40.7351 59.8488V59.8362Z"
      fill="#FF8700" />
  </svg>