<svg width="24" height="24" viewBox="0 0 30 30" fill="none" xmlns="http://www.w3.org/2000/svg">
    <path
        d="M2.5 6.25002H6.93125C7.0835 7.11913 7.53735 7.90673 8.21295 8.47426C8.88856 9.0418 9.74265 9.35294 10.625 9.35294C11.5074 9.35294 12.3614 9.0418 13.037 8.47426C13.7127 7.90673 14.1665 7.11913 14.3188 6.25002H27.5C27.6658 6.25002 27.8247 6.18417 27.9419 6.06696C28.0592 5.94975 28.125 5.79078 28.125 5.62502C28.125 5.45926 28.0592 5.30028 27.9419 5.18307C27.8247 5.06586 27.6658 5.00002 27.5 5.00002H14.3188C14.1665 4.1309 13.7127 3.34331 13.037 2.77577C12.3614 2.20823 11.5074 1.89709 10.625 1.89709C9.74265 1.89709 8.88856 2.20823 8.21295 2.77577C7.53735 3.34331 7.0835 4.1309 6.93125 5.00002H2.5C2.33424 5.00002 2.17527 5.06586 2.05806 5.18307C1.94085 5.30028 1.875 5.45926 1.875 5.62502C1.875 5.79078 1.94085 5.94975 2.05806 6.06696C2.17527 6.18417 2.33424 6.25002 2.5 6.25002ZM10.625 3.12502C11.1195 3.12502 11.6028 3.27164 12.0139 3.54634C12.425 3.82105 12.7455 4.21149 12.9347 4.66831C13.1239 5.12512 13.1734 5.62779 13.077 6.11274C12.9805 6.59769 12.7424 7.04315 12.3928 7.39278C12.0431 7.74241 11.5977 7.98052 11.1127 8.07698C10.6278 8.17344 10.1251 8.12393 9.66829 7.93472C9.21148 7.7455 8.82103 7.42506 8.54633 7.01394C8.27162 6.60282 8.125 6.11947 8.125 5.62502C8.125 4.96197 8.38839 4.32609 8.85723 3.85725C9.32607 3.38841 9.96196 3.12502 10.625 3.12502ZM27.5 14.375H23.0688C22.9165 13.5059 22.4627 12.7183 21.787 12.1508C21.1114 11.5832 20.2574 11.2721 19.375 11.2721C18.4926 11.2721 17.6386 11.5832 16.963 12.1508C16.2873 12.7183 15.8335 13.5059 15.6812 14.375H2.5C2.33424 14.375 2.17527 14.4409 2.05806 14.5581C1.94085 14.6753 1.875 14.8343 1.875 15C1.875 15.1658 1.94085 15.3247 2.05806 15.442C2.17527 15.5592 2.33424 15.625 2.5 15.625H15.6812C15.8335 16.4941 16.2873 17.2817 16.963 17.8493C17.6386 18.4168 18.4926 18.7279 19.375 18.7279C20.2574 18.7279 21.1114 18.4168 21.787 17.8493C22.4627 17.2817 22.9165 16.4941 23.0688 15.625H27.5C27.6658 15.625 27.8247 15.5592 27.9419 15.442C28.0592 15.3247 28.125 15.1658 28.125 15C28.125 14.8343 28.0592 14.6753 27.9419 14.5581C27.8247 14.4409 27.6658 14.375 27.5 14.375ZM19.375 17.5C18.8805 17.5 18.3972 17.3534 17.9861 17.0787C17.575 16.804 17.2545 16.4135 17.0653 15.9567C16.8761 15.4999 16.8266 14.9972 16.923 14.5123C17.0195 14.0273 17.2576 13.5819 17.6072 13.2322C17.9569 12.8826 18.4023 12.6445 18.8873 12.5481C19.3722 12.4516 19.8749 12.5011 20.3317 12.6903C20.7885 12.8795 21.179 13.2 21.4537 13.6111C21.7284 14.0222 21.875 14.5056 21.875 15C21.875 15.6631 21.6116 16.2989 21.1428 16.7678C20.6739 17.2366 20.038 17.5 19.375 17.5ZM27.5 23.75H14.3188C14.1665 22.8809 13.7127 22.0933 13.037 21.5258C12.3614 20.9582 11.5074 20.6471 10.625 20.6471C9.74265 20.6471 8.88856 20.9582 8.21295 21.5258C7.53735 22.0933 7.0835 22.8809 6.93125 23.75H2.5C2.33424 23.75 2.17527 23.8159 2.05806 23.9331C1.94085 24.0503 1.875 24.2093 1.875 24.375C1.875 24.5408 1.94085 24.6997 2.05806 24.817C2.17527 24.9342 2.33424 25 2.5 25H6.93125C7.0835 25.8691 7.53735 26.6567 8.21295 27.2243C8.88856 27.7918 9.74265 28.1029 10.625 28.1029C11.5074 28.1029 12.3614 27.7918 13.037 27.2243C13.7127 26.6567 14.1665 25.8691 14.3188 25H27.5C27.6658 25 27.8247 24.9342 27.9419 24.817C28.0592 24.6997 28.125 24.5408 28.125 24.375C28.125 24.2093 28.0592 24.0503 27.9419 23.9331C27.8247 23.8159 27.6658 23.75 27.5 23.75ZM10.625 26.875C10.1305 26.875 9.6472 26.7284 9.23607 26.4537C8.82495 26.179 8.50452 25.7885 8.3153 25.3317C8.12608 24.8749 8.07657 24.3722 8.17304 23.8873C8.2695 23.4023 8.5076 22.9569 8.85723 22.6072C9.20686 22.2576 9.65232 22.0195 10.1373 21.9231C10.6222 21.8266 11.1249 21.8761 11.5817 22.0653C12.0385 22.2545 12.429 22.575 12.7037 22.9861C12.9784 23.3972 13.125 23.8806 13.125 24.375C13.125 25.0381 12.8616 25.6739 12.3928 26.1428C11.9239 26.6116 11.288 26.875 10.625 26.875Z"
        fill="#666666" />
</svg>