<svg
    width="24"
    height="24"
    viewBox="0 0 24 24"
    fill="none"
    xmlns="http://www.w3.org/2000/svg"
>
    <mask
        id="path-1-outside-1_4062_865"
        maskUnits="userSpaceOnUse"
        x="0"
        y="0"
        width="24"
        height="24"
        fill="black"
    >
        <rect fill="white" width="24" height="24" />
        <path
            d="M12 1C5.93008 1 1 5.93008 1 12C1 18.0699 5.93008 23 12 23C18.0699 23 23 18.0699 23 12C23 5.93008 18.0699 1 12 1ZM12 1.88C17.5943 1.88 22.12 6.40567 22.12 12C22.12 17.5943 17.5943 22.12 12 22.12C6.40567 22.12 1.88 17.5943 1.88 12C1.88 6.40567 6.40567 1.88 12 1.88ZM12 3.2C7.14511 3.2 3.2 7.14511 3.2 12C3.2 13.9706 3.84933 15.7947 4.94539 17.262C4.97998 17.3083 5.02336 17.3473 5.07304 17.3769C5.12273 17.4065 5.17775 17.426 5.23497 17.4343C5.29218 17.4426 5.35047 17.4395 5.40651 17.4253C5.46255 17.411 5.51523 17.3859 5.56156 17.3513C5.60789 17.3167 5.64695 17.2734 5.67651 17.2237C5.70608 17.174 5.72556 17.119 5.73386 17.0618C5.74216 17.0045 5.73911 16.9462 5.72488 16.8902C5.71065 16.8342 5.68553 16.7815 5.65094 16.7352C4.66409 15.4141 4.08 13.7775 4.08 12C4.08 7.62069 7.62069 4.08 12 4.08C16.3793 4.08 19.92 7.62069 19.92 12C19.92 16.3793 16.3793 19.92 12 19.92C10.7226 19.92 9.51892 19.6188 8.45164 19.083C8.40001 19.057 8.34377 19.0414 8.28612 19.0372C8.22848 19.033 8.17057 19.0401 8.11569 19.0583C8.06082 19.0764 8.01006 19.1052 7.96631 19.143C7.92256 19.1808 7.88668 19.2268 7.86072 19.2784C7.83476 19.3301 7.81922 19.3863 7.815 19.444C7.81078 19.5016 7.81796 19.5595 7.83613 19.6144C7.85429 19.6693 7.88309 19.72 7.92087 19.7637C7.95865 19.8075 8.00468 19.8434 8.05633 19.8693C9.24266 20.4649 10.5839 20.8 12 20.8C16.8549 20.8 20.8 16.8549 20.8 12C20.8 7.14511 16.8549 3.2 12 3.2ZM11.9931 6.7243C11.8766 6.72612 11.7655 6.7741 11.6843 6.85772C11.6031 6.94134 11.5584 7.05376 11.56 7.17031V7.97469C11.5032 7.98476 11.4464 7.98903 11.3898 8.00307C10.3567 8.25955 9.60662 9.14633 9.60662 10.1781C9.60662 11.2064 10.3517 12.0891 11.3795 12.3489C11.9912 12.5343 12.3568 12.4574 12.7829 12.6308C13.3699 12.9536 13.6349 13.56 13.4661 14.1433C13.2956 14.7322 12.7037 15.1668 12.0017 15.1668C11.2996 15.1668 10.7069 14.7322 10.5365 14.1433C10.5204 14.0878 10.4935 14.0359 10.4574 13.9908C10.4213 13.9456 10.3767 13.908 10.3261 13.8801C10.2754 13.8522 10.2198 13.8345 10.1623 13.8281C10.1048 13.8218 10.0467 13.8267 9.99115 13.8428C9.93562 13.8589 9.8838 13.8858 9.83865 13.9219C9.7935 13.958 9.75591 14.0027 9.72802 14.0533C9.70013 14.104 9.68249 14.1596 9.67611 14.2171C9.66973 14.2745 9.67474 14.3327 9.69084 14.3882C9.93779 15.2414 10.6797 15.8493 11.56 16.0047V16.8297C11.5592 16.888 11.5699 16.9459 11.5917 17C11.6134 17.0541 11.6457 17.1034 11.6866 17.1449C11.7276 17.1864 11.7764 17.2194 11.8301 17.2419C11.8839 17.2644 11.9417 17.276 12 17.276C12.0583 17.276 12.116 17.2644 12.1698 17.2419C12.2236 17.2194 12.2724 17.1864 12.3133 17.1449C12.3543 17.1034 12.3865 17.0541 12.4083 17C12.43 16.9459 12.4408 16.888 12.44 16.8297V16.0056C13.3217 15.8512 14.0644 15.2425 14.3117 14.3882C14.5991 13.395 14.1188 12.3406 13.1859 11.8419C13.1744 11.8359 13.1627 11.8305 13.1507 11.8256C12.4901 11.5448 12.0465 11.6363 11.6253 11.5059C11.6173 11.5034 11.6093 11.5011 11.6012 11.499C10.9255 11.3313 10.4866 10.7842 10.4866 10.1782C10.4866 9.57187 10.9255 9.02504 11.6012 8.85729C12.2769 8.68973 12.9858 8.97004 13.32 9.50612C13.3505 9.55517 13.3905 9.59772 13.4375 9.63133C13.4845 9.66495 13.5377 9.68897 13.594 9.70203C13.6503 9.71508 13.7086 9.71692 13.7657 9.70743C13.8227 9.69794 13.8773 9.67732 13.9263 9.64673C13.9754 9.61614 14.0179 9.57619 14.0515 9.52916C14.0851 9.48213 14.1091 9.42894 14.1221 9.37263C14.1352 9.31632 14.137 9.25799 14.1275 9.20097C14.118 9.14396 14.0974 9.08938 14.0668 9.04034C13.7036 8.45775 13.103 8.08074 12.44 7.96526V7.17034C12.4408 7.11147 12.4298 7.05304 12.4076 6.99851C12.3854 6.94398 12.3525 6.89445 12.3108 6.85286C12.2692 6.81127 12.2196 6.77847 12.165 6.75639C12.1104 6.73431 12.052 6.72338 11.9931 6.7243ZM6.51032 17.8523C6.41909 17.8494 6.3292 17.8749 6.25311 17.9253C6.17702 17.9758 6.1185 18.0486 6.08564 18.1338C6.05279 18.2189 6.04723 18.3122 6.06973 18.4007C6.09224 18.4891 6.1417 18.5684 6.21126 18.6275C6.3243 18.7263 6.43955 18.8224 6.55759 18.9154C6.60281 18.9525 6.65499 18.9803 6.71107 18.997C6.76715 19.0137 6.826 19.0191 6.88418 19.0128C6.94235 19.0065 6.99869 18.9887 7.04989 18.9603C7.1011 18.932 7.14613 18.8937 7.18236 18.8478C7.2186 18.8018 7.2453 18.7491 7.26092 18.6927C7.27653 18.6363 7.28074 18.5774 7.2733 18.5193C7.26585 18.4613 7.24691 18.4053 7.21757 18.3547C7.18823 18.304 7.14909 18.2598 7.10243 18.2245C6.99614 18.1407 6.89228 18.0539 6.79048 17.9649C6.71329 17.8955 6.61406 17.8557 6.51032 17.8523Z" />
    </mask>
    <path
        d="M12 1C5.93008 1 1 5.93008 1 12C1 18.0699 5.93008 23 12 23C18.0699 23 23 18.0699 23 12C23 5.93008 18.0699 1 12 1ZM12 1.88C17.5943 1.88 22.12 6.40567 22.12 12C22.12 17.5943 17.5943 22.12 12 22.12C6.40567 22.12 1.88 17.5943 1.88 12C1.88 6.40567 6.40567 1.88 12 1.88ZM12 3.2C7.14511 3.2 3.2 7.14511 3.2 12C3.2 13.9706 3.84933 15.7947 4.94539 17.262C4.97998 17.3083 5.02336 17.3473 5.07304 17.3769C5.12273 17.4065 5.17775 17.426 5.23497 17.4343C5.29218 17.4426 5.35047 17.4395 5.40651 17.4253C5.46255 17.411 5.51523 17.3859 5.56156 17.3513C5.60789 17.3167 5.64695 17.2734 5.67651 17.2237C5.70608 17.174 5.72556 17.119 5.73386 17.0618C5.74216 17.0045 5.73911 16.9462 5.72488 16.8902C5.71065 16.8342 5.68553 16.7815 5.65094 16.7352C4.66409 15.4141 4.08 13.7775 4.08 12C4.08 7.62069 7.62069 4.08 12 4.08C16.3793 4.08 19.92 7.62069 19.92 12C19.92 16.3793 16.3793 19.92 12 19.92C10.7226 19.92 9.51892 19.6188 8.45164 19.083C8.40001 19.057 8.34377 19.0414 8.28612 19.0372C8.22848 19.033 8.17057 19.0401 8.11569 19.0583C8.06082 19.0764 8.01006 19.1052 7.96631 19.143C7.92256 19.1808 7.88668 19.2268 7.86072 19.2784C7.83476 19.3301 7.81922 19.3863 7.815 19.444C7.81078 19.5016 7.81796 19.5595 7.83613 19.6144C7.85429 19.6693 7.88309 19.72 7.92087 19.7637C7.95865 19.8075 8.00468 19.8434 8.05633 19.8693C9.24266 20.4649 10.5839 20.8 12 20.8C16.8549 20.8 20.8 16.8549 20.8 12C20.8 7.14511 16.8549 3.2 12 3.2ZM11.9931 6.7243C11.8766 6.72612 11.7655 6.7741 11.6843 6.85772C11.6031 6.94134 11.5584 7.05376 11.56 7.17031V7.97469C11.5032 7.98476 11.4464 7.98903 11.3898 8.00307C10.3567 8.25955 9.60662 9.14633 9.60662 10.1781C9.60662 11.2064 10.3517 12.0891 11.3795 12.3489C11.9912 12.5343 12.3568 12.4574 12.7829 12.6308C13.3699 12.9536 13.6349 13.56 13.4661 14.1433C13.2956 14.7322 12.7037 15.1668 12.0017 15.1668C11.2996 15.1668 10.7069 14.7322 10.5365 14.1433C10.5204 14.0878 10.4935 14.0359 10.4574 13.9908C10.4213 13.9456 10.3767 13.908 10.3261 13.8801C10.2754 13.8522 10.2198 13.8345 10.1623 13.8281C10.1048 13.8218 10.0467 13.8267 9.99115 13.8428C9.93562 13.8589 9.8838 13.8858 9.83865 13.9219C9.7935 13.958 9.75591 14.0027 9.72802 14.0533C9.70013 14.104 9.68249 14.1596 9.67611 14.2171C9.66973 14.2745 9.67474 14.3327 9.69084 14.3882C9.93779 15.2414 10.6797 15.8493 11.56 16.0047V16.8297C11.5592 16.888 11.5699 16.9459 11.5917 17C11.6134 17.0541 11.6457 17.1034 11.6866 17.1449C11.7276 17.1864 11.7764 17.2194 11.8301 17.2419C11.8839 17.2644 11.9417 17.276 12 17.276C12.0583 17.276 12.116 17.2644 12.1698 17.2419C12.2236 17.2194 12.2724 17.1864 12.3133 17.1449C12.3543 17.1034 12.3865 17.0541 12.4083 17C12.43 16.9459 12.4408 16.888 12.44 16.8297V16.0056C13.3217 15.8512 14.0644 15.2425 14.3117 14.3882C14.5991 13.395 14.1188 12.3406 13.1859 11.8419C13.1744 11.8359 13.1627 11.8305 13.1507 11.8256C12.4901 11.5448 12.0465 11.6363 11.6253 11.5059C11.6173 11.5034 11.6093 11.5011 11.6012 11.499C10.9255 11.3313 10.4866 10.7842 10.4866 10.1782C10.4866 9.57187 10.9255 9.02504 11.6012 8.85729C12.2769 8.68973 12.9858 8.97004 13.32 9.50612C13.3505 9.55517 13.3905 9.59772 13.4375 9.63133C13.4845 9.66495 13.5377 9.68897 13.594 9.70203C13.6503 9.71508 13.7086 9.71692 13.7657 9.70743C13.8227 9.69794 13.8773 9.67732 13.9263 9.64673C13.9754 9.61614 14.0179 9.57619 14.0515 9.52916C14.0851 9.48213 14.1091 9.42894 14.1221 9.37263C14.1352 9.31632 14.137 9.25799 14.1275 9.20097C14.118 9.14396 14.0974 9.08938 14.0668 9.04034C13.7036 8.45775 13.103 8.08074 12.44 7.96526V7.17034C12.4408 7.11147 12.4298 7.05304 12.4076 6.99851C12.3854 6.94398 12.3525 6.89445 12.3108 6.85286C12.2692 6.81127 12.2196 6.77847 12.165 6.75639C12.1104 6.73431 12.052 6.72338 11.9931 6.7243ZM6.51032 17.8523C6.41909 17.8494 6.3292 17.8749 6.25311 17.9253C6.17702 17.9758 6.1185 18.0486 6.08564 18.1338C6.05279 18.2189 6.04723 18.3122 6.06973 18.4007C6.09224 18.4891 6.1417 18.5684 6.21126 18.6275C6.3243 18.7263 6.43955 18.8224 6.55759 18.9154C6.60281 18.9525 6.65499 18.9803 6.71107 18.997C6.76715 19.0137 6.826 19.0191 6.88418 19.0128C6.94235 19.0065 6.99869 18.9887 7.04989 18.9603C7.1011 18.932 7.14613 18.8937 7.18236 18.8478C7.2186 18.8018 7.2453 18.7491 7.26092 18.6927C7.27653 18.6363 7.28074 18.5774 7.2733 18.5193C7.26585 18.4613 7.24691 18.4053 7.21757 18.3547C7.18823 18.304 7.14909 18.2598 7.10243 18.2245C6.99614 18.1407 6.89228 18.0539 6.79048 17.9649C6.71329 17.8955 6.61406 17.8557 6.51032 17.8523Z"
        fill="#666666"
    />
    <path
        d="M12 1C5.93008 1 1 5.93008 1 12C1 18.0699 5.93008 23 12 23C18.0699 23 23 18.0699 23 12C23 5.93008 18.0699 1 12 1ZM12 1.88C17.5943 1.88 22.12 6.40567 22.12 12C22.12 17.5943 17.5943 22.12 12 22.12C6.40567 22.12 1.88 17.5943 1.88 12C1.88 6.40567 6.40567 1.88 12 1.88ZM12 3.2C7.14511 3.2 3.2 7.14511 3.2 12C3.2 13.9706 3.84933 15.7947 4.94539 17.262C4.97998 17.3083 5.02336 17.3473 5.07304 17.3769C5.12273 17.4065 5.17775 17.426 5.23497 17.4343C5.29218 17.4426 5.35047 17.4395 5.40651 17.4253C5.46255 17.411 5.51523 17.3859 5.56156 17.3513C5.60789 17.3167 5.64695 17.2734 5.67651 17.2237C5.70608 17.174 5.72556 17.119 5.73386 17.0618C5.74216 17.0045 5.73911 16.9462 5.72488 16.8902C5.71065 16.8342 5.68553 16.7815 5.65094 16.7352C4.66409 15.4141 4.08 13.7775 4.08 12C4.08 7.62069 7.62069 4.08 12 4.08C16.3793 4.08 19.92 7.62069 19.92 12C19.92 16.3793 16.3793 19.92 12 19.92C10.7226 19.92 9.51892 19.6188 8.45164 19.083C8.40001 19.057 8.34377 19.0414 8.28612 19.0372C8.22848 19.033 8.17057 19.0401 8.11569 19.0583C8.06082 19.0764 8.01006 19.1052 7.96631 19.143C7.92256 19.1808 7.88668 19.2268 7.86072 19.2784C7.83476 19.3301 7.81922 19.3863 7.815 19.444C7.81078 19.5016 7.81796 19.5595 7.83613 19.6144C7.85429 19.6693 7.88309 19.72 7.92087 19.7637C7.95865 19.8075 8.00468 19.8434 8.05633 19.8693C9.24266 20.4649 10.5839 20.8 12 20.8C16.8549 20.8 20.8 16.8549 20.8 12C20.8 7.14511 16.8549 3.2 12 3.2ZM11.9931 6.7243C11.8766 6.72612 11.7655 6.7741 11.6843 6.85772C11.6031 6.94134 11.5584 7.05376 11.56 7.17031V7.97469C11.5032 7.98476 11.4464 7.98903 11.3898 8.00307C10.3567 8.25955 9.60662 9.14633 9.60662 10.1781C9.60662 11.2064 10.3517 12.0891 11.3795 12.3489C11.9912 12.5343 12.3568 12.4574 12.7829 12.6308C13.3699 12.9536 13.6349 13.56 13.4661 14.1433C13.2956 14.7322 12.7037 15.1668 12.0017 15.1668C11.2996 15.1668 10.7069 14.7322 10.5365 14.1433C10.5204 14.0878 10.4935 14.0359 10.4574 13.9908C10.4213 13.9456 10.3767 13.908 10.3261 13.8801C10.2754 13.8522 10.2198 13.8345 10.1623 13.8281C10.1048 13.8218 10.0467 13.8267 9.99115 13.8428C9.93562 13.8589 9.8838 13.8858 9.83865 13.9219C9.7935 13.958 9.75591 14.0027 9.72802 14.0533C9.70013 14.104 9.68249 14.1596 9.67611 14.2171C9.66973 14.2745 9.67474 14.3327 9.69084 14.3882C9.93779 15.2414 10.6797 15.8493 11.56 16.0047V16.8297C11.5592 16.888 11.5699 16.9459 11.5917 17C11.6134 17.0541 11.6457 17.1034 11.6866 17.1449C11.7276 17.1864 11.7764 17.2194 11.8301 17.2419C11.8839 17.2644 11.9417 17.276 12 17.276C12.0583 17.276 12.116 17.2644 12.1698 17.2419C12.2236 17.2194 12.2724 17.1864 12.3133 17.1449C12.3543 17.1034 12.3865 17.0541 12.4083 17C12.43 16.9459 12.4408 16.888 12.44 16.8297V16.0056C13.3217 15.8512 14.0644 15.2425 14.3117 14.3882C14.5991 13.395 14.1188 12.3406 13.1859 11.8419C13.1744 11.8359 13.1627 11.8305 13.1507 11.8256C12.4901 11.5448 12.0465 11.6363 11.6253 11.5059C11.6173 11.5034 11.6093 11.5011 11.6012 11.499C10.9255 11.3313 10.4866 10.7842 10.4866 10.1782C10.4866 9.57187 10.9255 9.02504 11.6012 8.85729C12.2769 8.68973 12.9858 8.97004 13.32 9.50612C13.3505 9.55517 13.3905 9.59772 13.4375 9.63133C13.4845 9.66495 13.5377 9.68897 13.594 9.70203C13.6503 9.71508 13.7086 9.71692 13.7657 9.70743C13.8227 9.69794 13.8773 9.67732 13.9263 9.64673C13.9754 9.61614 14.0179 9.57619 14.0515 9.52916C14.0851 9.48213 14.1091 9.42894 14.1221 9.37263C14.1352 9.31632 14.137 9.25799 14.1275 9.20097C14.118 9.14396 14.0974 9.08938 14.0668 9.04034C13.7036 8.45775 13.103 8.08074 12.44 7.96526V7.17034C12.4408 7.11147 12.4298 7.05304 12.4076 6.99851C12.3854 6.94398 12.3525 6.89445 12.3108 6.85286C12.2692 6.81127 12.2196 6.77847 12.165 6.75639C12.1104 6.73431 12.052 6.72338 11.9931 6.7243ZM6.51032 17.8523C6.41909 17.8494 6.3292 17.8749 6.25311 17.9253C6.17702 17.9758 6.1185 18.0486 6.08564 18.1338C6.05279 18.2189 6.04723 18.3122 6.06973 18.4007C6.09224 18.4891 6.1417 18.5684 6.21126 18.6275C6.3243 18.7263 6.43955 18.8224 6.55759 18.9154C6.60281 18.9525 6.65499 18.9803 6.71107 18.997C6.76715 19.0137 6.826 19.0191 6.88418 19.0128C6.94235 19.0065 6.99869 18.9887 7.04989 18.9603C7.1011 18.932 7.14613 18.8937 7.18236 18.8478C7.2186 18.8018 7.2453 18.7491 7.26092 18.6927C7.27653 18.6363 7.28074 18.5774 7.2733 18.5193C7.26585 18.4613 7.24691 18.4053 7.21757 18.3547C7.18823 18.304 7.14909 18.2598 7.10243 18.2245C6.99614 18.1407 6.89228 18.0539 6.79048 17.9649C6.71329 17.8955 6.61406 17.8557 6.51032 17.8523Z"
        stroke="#666666"
        stroke-width="0.8"
        mask="url(#path-1-outside-1_4062_865)"
    />
</svg>