<svg
    width="30"
    height="30"
    viewBox="0 0 40 40"
    fill="none"
    xmlns="http://www.w3.org/2000/svg"
>
    <path
        d="M24.3355 29.7474L24.3046 23.9073M27.2411 28.0002L26.962 20.9396C26.8499 18.1008 13.618 18.312 13.1897 20.9113C12.8785 22.3397 12.8053 25.3931 12.7649 28.0002M15.8262 23.9075L15.7953 29.9452M8.81873 18.6398C5.51288 18.6251 2.07434 19.2979 1.86427 20.572C1.58123 21.8708 1.44048 27.0866 1.3999 29.3916M4.37849 23.3318L4.35748 28.0001M35.7751 29.2375L35.7538 23.3318M38.546 30.4747L38.2886 20.5987C38.2493 19.0908 34.2862 18.4862 30.7404 18.6725M19.9632 9.52486C21.6424 9.52486 23.0037 11.0295 23.0037 12.8857C23.0037 14.1394 22.3823 15.233 21.4613 15.8099C21.0022 16.1115 20.4674 16.2722 19.9209 16.2728C18.2416 16.2728 16.8804 14.7682 16.8804 12.9121C16.8804 11.6582 17.5013 10.5653 18.4219 9.9878C18.8812 9.68601 19.4162 9.52521 19.963 9.52463L19.9632 9.52486ZM8.32584 9.35874C10.005 9.35874 11.3663 10.8634 11.3663 12.7195C11.3663 13.9733 10.7449 15.0668 9.82387 15.6438C9.36473 15.9454 8.82993 16.1061 8.28338 16.1068C6.60414 16.1068 5.24288 14.6021 5.24288 12.746C5.24288 11.4922 5.86381 10.3992 6.78425 9.82167C7.24361 9.5199 7.77869 9.35911 8.32551 9.35851L8.32584 9.35874ZM31.6139 9.35862C33.293 9.35862 34.6544 10.8633 34.6544 12.7194C34.6544 13.9732 34.033 15.0667 33.112 15.6437C32.6529 15.9453 32.1181 16.106 31.5715 16.1066C29.8923 16.1066 28.531 14.602 28.531 12.7459C28.531 11.4921 29.1519 10.3991 30.0724 9.82156C30.5318 9.51977 31.0668 9.35898 31.6137 9.3584L31.6139 9.35862Z"
        stroke="#666666"
        stroke-width="2"
        stroke-linecap="round"
        stroke-linejoin="round"
    />
</svg>