<svg
    width="40"
    height="40"
    viewBox="0 0 40 40"
    fill="none"
    xmlns="http://www.w3.org/2000/svg"
>
    <path
        d="M30.3032 20.8475C30.6422 20.0906 31.2388 19.4765 31.9889 19.1163C32.7763 18.738 33.6764 18.6666 34.5137 18.916C35.3509 19.1653 36.0653 19.7176 36.5175 20.465C36.9697 21.2125 37.1273 22.1016 36.9595 22.9589C36.7918 23.8162 36.3108 24.5804 35.6102 25.1023C34.9097 25.6242 34.0399 25.8666 33.1704 25.782C32.3009 25.6974 31.494 25.2921 30.9072 24.6449C30.3395 24.0189 30.017 23.21 29.9971 22.367L27.8137 21.9326C27.3472 24.3362 25.9967 26.478 24.0288 27.9351L26.8208 32.0586C27.6918 31.6645 28.6769 31.5955 29.5966 31.8668C30.5582 32.1505 31.3779 32.7856 31.8928 33.6459C32.4077 34.5061 32.5801 35.5286 32.3758 36.5102C32.1716 37.4917 31.6055 38.3605 30.7901 38.9439C29.9748 39.5273 28.9698 39.7826 27.9748 39.6591C26.9798 39.5356 26.0678 39.0424 25.4198 38.2773C24.7718 37.5123 24.4353 36.5315 24.4772 35.5298C24.5173 34.5695 24.9023 33.6575 25.5592 32.9597L22.7139 28.758C21.3737 29.4535 19.8899 29.8295 18.3789 29.8556C16.8228 29.8824 15.2827 29.5374 13.8868 28.8492L13.752 28.7828L13.8187 28.6481L14.3734 27.5277L14.44 27.3932L14.5744 27.4598C15.7056 28.0206 16.9518 28.3106 18.2143 28.3069L18.2148 28.3069C19.295 28.3069 20.3646 28.0941 21.3625 27.6807C22.3605 27.2674 23.2673 26.6615 24.0311 25.8977C24.7949 25.1339 25.4008 24.2271 25.8142 23.2291C26.2276 22.2311 26.4403 21.1615 26.4403 20.0813C26.4403 19.0011 26.2276 17.9315 25.8142 16.9335C25.4008 15.9356 24.7949 15.0288 24.0311 14.265C23.2673 13.5012 22.3605 12.8953 21.3625 12.4819C20.3646 12.0685 19.295 11.8558 18.2148 11.8558C17.8329 11.8557 17.4515 11.8819 17.0732 11.9341L16.9247 11.9546L16.9041 11.8062L16.7322 10.5681L16.7116 10.4195L16.8602 10.3989C17.3089 10.3369 17.7613 10.3057 18.2143 10.3058C18.2144 10.3058 18.2144 10.3058 18.2145 10.3058L18.2145 10.4558C20.1037 10.4538 21.9514 11.011 23.5245 12.0573L30.3032 20.8475ZM30.3032 20.8475L27.9849 20.3864C27.9882 20.2854 27.9902 20.1838 27.9902 20.0815L30.3032 20.8475ZM26.3294 7.83527L23.4856 11.8526L27.9902 20.0815C27.9906 18.6814 27.6896 17.2976 27.1077 16.0241C26.5448 14.7919 25.7315 13.6909 24.7203 12.7909L27.5937 8.732C28.5653 9.19103 29.672 9.28256 30.7081 8.98668C31.7858 8.67889 32.7072 7.97469 33.2871 7.01552C33.867 6.05636 34.0625 4.91329 33.8343 3.81593C33.6061 2.71856 32.9711 1.74819 32.0569 1.09974C31.1427 0.451294 30.0169 0.172796 28.9058 0.320195C27.7947 0.467594 26.7806 1.02997 26.067 1.89436C25.3535 2.75874 24.9935 3.86111 25.0593 4.98002C25.1226 6.05571 25.5749 7.07008 26.3294 7.83527ZM26.6017 4.7292C26.6018 4.16074 26.7703 3.60506 27.0861 3.13239C27.402 2.65969 27.8509 2.29125 28.3761 2.07367C28.9014 1.8561 29.4793 1.79916 30.0369 1.91005C30.5945 2.02094 31.1067 2.29468 31.5087 2.69666C31.9108 3.09864 32.1846 3.61081 32.2955 4.16839C32.4065 4.72598 32.3496 5.30394 32.1321 5.8292C31.9145 6.35445 31.5461 6.80342 31.0735 7.11931C30.6008 7.43517 30.0452 7.60381 29.4767 7.6039C28.7145 7.60311 27.9837 7.3 27.4448 6.76107C26.9058 6.22214 26.6026 5.4914 26.6017 4.7292ZM30.9099 35.6989C30.9099 36.1824 30.7665 36.6551 30.4978 37.0571C30.2292 37.4592 29.8473 37.7725 29.4005 37.9576C28.9537 38.1426 28.4621 38.191 27.9879 38.0967C27.5136 38.0023 27.0779 37.7694 26.736 37.4275C26.3941 37.0855 26.1612 36.6499 26.0669 36.1756C25.9726 35.7013 26.021 35.2097 26.2061 34.7629C26.3911 34.3162 26.7045 33.9343 27.1066 33.6657C27.5087 33.3971 27.9813 33.2537 28.4648 33.2537C29.1131 33.2544 29.7346 33.5123 30.193 33.9707C30.6514 34.4291 30.9092 35.0506 30.9099 35.6989ZM35.4702 22.282C35.4702 22.67 35.3551 23.0493 35.1396 23.3719C34.924 23.6946 34.6176 23.946 34.259 24.0945C33.9005 24.243 33.506 24.2819 33.1254 24.2062C32.7448 24.1305 32.3952 23.9436 32.1208 23.6692C31.8464 23.3948 31.6596 23.0452 31.5839 22.6646C31.5082 22.284 31.547 21.8895 31.6955 21.531C31.844 21.1725 32.0955 20.8661 32.4182 20.6505C32.7408 20.4349 33.12 20.3199 33.508 20.3198C34.0283 20.3204 34.527 20.5273 34.8949 20.8952C35.2627 21.263 35.4697 21.7618 35.4702 22.282Z"
        fill="#666666"
        stroke="#666666"
        stroke-width="0.3"
    />
    <path
        d="M23.1187 12.8494C23.1189 12.6855 23.0671 12.5258 22.9707 12.3932C22.8743 12.2606 22.7383 12.1621 22.5824 12.1117L22.5823 12.1117L22.9688 12.8493M23.1187 12.8494L22.9688 12.8493M23.1187 12.8494V12.8493H22.9688M23.1187 12.8494V25.5366M22.9688 12.8493V25.5368M23.1187 25.5366L22.9688 25.5368M23.1187 25.5366V25.5368H22.9688M23.1187 25.5366C23.1189 25.7006 23.067 25.8603 22.9706 25.9929C22.8742 26.1255 22.7382 26.2241 22.5822 26.2744L22.5821 26.2744L13.2875 29.2722L13.2874 29.2723C13.1325 29.3221 12.9659 29.3221 12.811 29.2723L12.8108 29.2723L3.51471 26.2747C3.51465 26.2746 3.51458 26.2746 3.51451 26.2746C3.35833 26.2244 3.22203 26.1261 3.12512 25.9938C3.02816 25.8614 2.97562 25.7017 2.975 25.5376L2.975 25.537L2.975 12.8495V12.8489C2.97559 12.6848 3.02812 12.5251 3.12506 12.3927C3.22199 12.2603 3.35833 12.162 3.51455 12.1118L3.51444 12.1119L3.56047 12.2546L3.51463 12.1118L22.9688 25.5368M6.27971 12.8495L13.0499 10.6661L19.8201 12.8495L13.0499 15.033L6.27971 12.8495ZM4.525 24.9723V13.9138L12.1938 16.3855V27.444L4.525 24.9723ZM21.5688 24.9724L13.7437 27.4964V16.4379L21.5688 13.9138V24.9724Z"
        fill="#666666"
        stroke="#666666"
        stroke-width="0.3"
    />
</svg>