<svg
    width="24"
    height="24"
    viewBox="0 0 24 24"
    fill="none"
    xmlns="http://www.w3.org/2000/svg"
>
    <g clip-path="url(#clip0_4772_817)">
        <g clip-path="url(#clip1_4772_817)">
            <path
                d="M9.92603 13.2086H9.77603V13.3586C9.77603 14.3086 10.5488 15.0813 11.4988 15.0813H12.5014C13.4514 15.0813 14.2241 14.3086 14.2241 13.3586V13.2874C14.2241 12.3374 13.4514 11.5647 12.5014 11.5647H11.4988C11.0271 11.5647 10.643 11.1805 10.643 10.7089V10.6372C10.643 10.1653 11.0271 9.78141 11.4988 9.78141H12.5014C12.9731 9.78141 13.3572 10.1655 13.3572 10.6372V10.7872H13.5072H14.0741H14.2241V10.6372C14.2241 9.68719 13.4514 8.91445 12.5014 8.91445H11.4988C10.5488 8.91445 9.77603 9.68719 9.77603 10.6372V10.7083C9.77603 11.6583 10.5488 12.4311 11.4988 12.4311H12.5014C12.9731 12.4311 13.3572 12.8152 13.3572 13.2868V13.3586C13.3572 13.8305 12.9731 14.2143 12.5014 14.2143H11.4988C11.0271 14.2143 10.643 13.8302 10.643 13.3586V13.2086H10.493H9.92603Z"
                fill="#666666"
                stroke="#666666"
                stroke-width="0.3"
            />
            <path
                d="M12.4338 14.6484V14.4984H12.2838H11.7168H11.5668V14.6484V15.705V15.855H11.7168H12.2838H12.4338V15.705V14.6484Z"
                fill="#666666"
                stroke="#666666"
                stroke-width="0.3"
            />
            <path
                d="M12.4338 8.29102V8.14102H12.2838H11.7168H11.5668V8.29102V9.34753V9.49753H11.7168H12.2838H12.4338V9.34753V8.29102Z"
                fill="#666666"
                stroke="#666666"
                stroke-width="0.3"
            />
            <path
                d="M6.95308 17.0465C6.95308 17.0465 6.95309 17.0465 6.95309 17.0465C8.30082 18.3945 10.094 19.1371 12.0002 19.1371C13.9063 19.1371 15.6995 18.3945 17.0472 17.0465C17.0472 17.0465 17.0472 17.0465 17.0472 17.0465H6.95308ZM6.95308 17.0465C5.60509 15.6985 4.86245 13.9056 4.86245 11.9994C4.86245 10.0932 5.60509 8.30007 6.9531 6.95235C8.3011 5.60436 10.094 4.86172 12.0002 4.86172C13.9064 4.86172 15.6995 5.60435 17.0472 6.95237L6.95308 17.0465ZM5.72941 11.9994C5.72941 8.54193 8.54266 5.72867 12.0002 5.72867C15.4577 5.72867 18.2709 8.54193 18.2709 11.9994C18.2709 15.4569 15.4577 18.2702 12.0002 18.2702C8.54266 18.2702 5.72941 15.4569 5.72941 11.9994Z"
                fill="#666666"
                stroke="#666666"
                stroke-width="0.3"
            />
            <path
                d="M12.4338 3.32617V3.17617H12.2838H11.7168H11.5668V3.32617V5.29407V5.44407H11.7168H12.2838H12.4338V5.29407V3.32617Z"
                fill="#666666"
                stroke="#666666"
                stroke-width="0.3"
            />
            <path
                d="M12.4338 18.7031V18.5531H12.2838H11.7168H11.5668V18.7031V20.6696V20.8196H11.7168H12.2838H12.4338V20.6696V18.7031Z"
                fill="#666666"
                stroke="#666666"
                stroke-width="0.3"
            />
            <path
                d="M20.8208 11.7168V11.5668H20.6708H18.7043H18.5543V11.7168V12.2838V12.4338H18.7043H20.6708H20.8208V12.2838V11.7168Z"
                fill="#666666"
                stroke="#666666"
                stroke-width="0.3"
            />
            <path
                d="M5.44558 11.7168V11.5668H5.29558H3.3291H3.1791V11.7168V12.2838V12.4338H3.3291H5.29558H5.44558V12.2838V11.7168Z"
                fill="#666666"
                stroke="#666666"
                stroke-width="0.3"
            />
            <path
                d="M17.047 16.4344L16.9409 16.3284L16.8349 16.4344L16.434 16.8353L16.3279 16.9414L16.434 17.0475L17.8245 18.438L17.9306 18.544L18.0366 18.438L18.4375 18.0371L18.5436 17.931L18.4375 17.8249L17.047 16.4344Z"
                fill="#666666"
                stroke="#666666"
                stroke-width="0.3"
            />
            <path
                d="M6.17517 5.56139L6.0691 5.45532L5.96304 5.56139L5.56215 5.9623L5.45608 6.06836L5.56215 6.17443L6.95269 7.56492L7.05875 7.67098L7.16482 7.56491L7.56571 7.16401L7.67177 7.05794L7.5657 6.95188L6.17517 5.56139Z"
                fill="#666666"
                stroke="#666666"
                stroke-width="0.3"
            />
            <path
                d="M11.9999 23.1512C12.8041 23.1512 13.4561 22.4992 13.4561 21.6949C13.4561 20.8907 12.8041 20.2387 11.9999 20.2387C11.1956 20.2387 10.5436 20.8907 10.5436 21.6949C10.5436 22.4992 11.1956 23.1512 11.9999 23.1512Z"
                fill="#666666"
                stroke="#666666"
                stroke-width="0.3"
            />
            <path
                d="M11.9999 3.76253C12.8041 3.76253 13.4561 3.11053 13.4561 2.30626C13.4561 1.50199 12.8041 0.85 11.9999 0.85C11.1956 0.85 10.5436 1.50199 10.5436 2.30626C10.5436 3.11053 11.1956 3.76253 11.9999 3.76253Z"
                fill="#666666"
                stroke="#666666"
                stroke-width="0.3"
            />
            <path
                d="M6.06919 17.9295L6.17531 17.8235C5.90052 17.5484 5.53434 17.3968 5.14562 17.3968C4.75688 17.3968 4.39074 17.5484 4.1157 17.8235C3.84092 18.0983 3.68936 18.4644 3.68936 18.8531C3.68936 19.2418 3.84093 19.6079 4.11564 19.883L4.11576 19.8831C4.39079 20.1578 4.75689 20.3094 5.14562 20.3094C5.53433 20.3094 5.90047 20.1578 6.17525 19.883C6.4503 19.608 6.60188 19.2418 6.60188 18.8531C6.60188 18.4644 6.4503 18.0982 6.17519 17.8234L6.06919 17.9295ZM6.06919 17.9295C5.82256 17.6826 5.49458 17.5468 5.14562 17.5468C4.79666 17.5468 4.46867 17.6826 4.22177 17.9295C3.97514 18.1762 3.83936 18.5041 3.83936 18.8531C3.83936 19.2021 3.97514 19.5301 4.22177 19.777C4.46867 20.0236 4.79666 20.1594 5.14562 20.1594C5.49458 20.1594 5.82256 20.0236 6.06919 19.777C6.3161 19.5301 6.45188 19.2021 6.45188 18.8531C6.45188 18.5041 6.3161 18.1762 6.06919 17.9295ZM6.17525 6.17379C6.45033 5.899 6.60188 5.53285 6.60188 5.14415C6.60188 4.9499 6.56401 4.76149 6.49187 4.58684L6.49178 4.58662C6.41935 4.41204 6.31278 4.25145 6.17513 4.11411C5.90037 3.83941 5.53427 3.68789 5.14562 3.68789C4.75689 3.68789 4.39079 3.83947 4.11576 4.11417L4.11564 4.1143C3.84093 4.38932 3.68936 4.75543 3.68936 5.14415C3.68936 5.53287 3.84092 5.89901 4.1157 6.17379C4.39074 6.44883 4.75688 6.60042 5.14562 6.60042C5.53431 6.60042 5.90046 6.44886 6.17525 6.17379ZM6.17525 6.17379C6.17527 6.17377 6.17529 6.17375 6.17531 6.17373L6.06919 6.06772L6.17519 6.17385C6.17521 6.17383 6.17523 6.17381 6.17525 6.17379Z"
                fill="#666666"
                stroke="#666666"
                stroke-width="0.3"
            />
            <path
                d="M2.30626 13.4539C3.11053 13.4539 3.76253 12.8019 3.76253 11.9977C3.76253 11.1934 3.11053 10.5414 2.30626 10.5414C1.50199 10.5414 0.85 11.1934 0.85 11.9977C0.85 12.8019 1.50199 13.4539 2.30626 13.4539Z"
                fill="#666666"
                stroke="#666666"
                stroke-width="0.3"
            />
            <path
                d="M17.8248 17.8235C17.2568 18.3912 17.2569 19.3151 17.8248 19.883C18.0996 20.1578 18.4657 20.3094 18.8545 20.3094C19.2432 20.3094 19.6093 20.1578 19.8843 19.8831L19.8844 19.883C20.1591 19.6079 20.3107 19.2418 20.3107 18.8531C20.3107 18.4644 20.1592 18.0983 19.8844 17.8235C19.6093 17.5484 19.2432 17.3968 18.8545 17.3968C18.4658 17.3968 18.0996 17.5484 17.8248 17.8235ZM17.8248 17.8235C17.8248 17.8235 17.8248 17.8235 17.8248 17.8235L17.9309 17.9295L17.8248 17.8234C17.8248 17.8235 17.8248 17.8235 17.8248 17.8235ZM19.8844 4.1143L19.8843 4.11417C19.6093 3.83947 19.2432 3.68789 18.8545 3.68789C18.6602 3.68789 18.4718 3.72576 18.2971 3.7979L18.2969 3.79799C18.1223 3.87045 17.962 3.97702 17.8248 4.11424C17.2568 4.68221 17.2568 5.60609 17.8248 6.17382C18.0996 6.44887 18.4658 6.60042 18.8545 6.60042C19.2432 6.60042 19.6093 6.44883 19.8844 6.17379C20.1592 5.89901 20.3107 5.53286 20.3107 5.14415C20.3107 4.75543 20.1591 4.38932 19.8844 4.1143Z"
                fill="#666666"
                stroke="#666666"
                stroke-width="0.3"
            />
            <path
                d="M21.6937 13.4539C22.498 13.4539 23.15 12.8019 23.15 11.9977C23.15 11.1934 22.498 10.5414 21.6937 10.5414C20.8894 10.5414 20.2375 11.1934 20.2375 11.9977C20.2375 12.8019 20.8894 13.4539 21.6937 13.4539Z"
                fill="#666666"
                stroke="#666666"
                stroke-width="0.3"
            />
            <path
                d="M7.16477 16.4331L7.0587 16.327L6.95263 16.4331L5.56215 17.8236L5.45608 17.9297L5.56215 18.0358L5.96305 18.4366L6.06912 18.5427L6.17518 18.4366L7.56567 17.0461L7.67174 16.94L7.56567 16.834L7.16477 16.4331Z"
                fill="#666666"
                stroke="#666666"
                stroke-width="0.3"
            />
            <path
                d="M18.0368 5.56004L17.9308 5.45397L17.8247 5.56004L16.4342 6.95058L16.3282 7.05664L16.4342 7.16271L16.8351 7.5636L16.9412 7.66966L17.0473 7.56359L18.4377 6.17306L18.5438 6.06699L18.4377 5.96093L18.0368 5.56004Z"
                fill="#666666"
                stroke="#666666"
                stroke-width="0.3"
            />
        </g>
    </g>
    <defs>
        <clipPath id="clip0_4772_817">
            <rect width="24" height="24" fill="white" />
        </clipPath>
        <clipPath id="clip1_4772_817">
            <rect width="24" height="24" fill="white" />
        </clipPath>
    </defs>
</svg>