<svg
    width="27"
    height="27"
    viewBox="0 0 27 27"
    fill="none"
    xmlns="http://www.w3.org/2000/svg"
>
    <g clip-path="url(#clip0_3254_4016)">
        <path
            d="M21.8587 14.6025C21.9037 14.2425 21.9374 13.8825 21.9374 13.5C21.9374 13.1175 21.9037 12.7575 21.8587 12.3975L24.2324 10.5413C24.4462 10.3725 24.5024 10.0687 24.3674 9.82125L22.1174 5.92875C22.0162 5.74875 21.8249 5.6475 21.6224 5.6475C21.5549 5.6475 21.4874 5.65875 21.4312 5.68125L18.6299 6.80625C18.0449 6.35625 17.4149 5.985 16.7287 5.70375L16.3012 2.7225C16.2674 2.4525 16.0312 2.25 15.7499 2.25H11.2499C10.9687 2.25 10.7324 2.4525 10.6987 2.7225L10.2712 5.70375C9.58494 5.985 8.95494 6.3675 8.36994 6.80625L5.56869 5.68125C5.50119 5.65875 5.43369 5.6475 5.36619 5.6475C5.17494 5.6475 4.98369 5.74875 4.88244 5.92875L2.63244 9.82125C2.48619 10.0687 2.55369 10.3725 2.76744 10.5413L5.14119 12.3975C5.09619 12.7575 5.06244 13.1287 5.06244 13.5C5.06244 13.8713 5.09619 14.2425 5.14119 14.6025L2.76744 16.4587C2.55369 16.6275 2.49744 16.9313 2.63244 17.1788L4.88244 21.0712C4.98369 21.2512 5.17494 21.3525 5.37744 21.3525C5.44494 21.3525 5.51244 21.3413 5.56869 21.3188L8.36994 20.1938C8.95494 20.6438 9.58494 21.015 10.2712 21.2962L10.6987 24.2775C10.7324 24.5475 10.9687 24.75 11.2499 24.75H15.7499C16.0312 24.75 16.2674 24.5475 16.3012 24.2775L16.7287 21.2962C17.4149 21.015 18.0449 20.6325 18.6299 20.1938L21.4312 21.3188C21.4987 21.3413 21.5662 21.3525 21.6337 21.3525C21.8249 21.3525 22.0162 21.2512 22.1174 21.0712L24.3674 17.1788C24.5024 16.9313 24.4462 16.6275 24.2324 16.4587L21.8587 14.6025ZM19.6312 12.6788C19.6762 13.0275 19.6874 13.2638 19.6874 13.5C19.6874 13.7362 19.6649 13.9837 19.6312 14.3212L19.4737 15.5925L20.4749 16.38L21.6899 17.325L20.9024 18.6863L19.4737 18.1125L18.3037 17.64L17.2912 18.405C16.8074 18.765 16.3462 19.035 15.8849 19.2262L14.6924 19.71L14.5124 20.9812L14.2874 22.5H12.7124L12.4987 20.9812L12.3187 19.71L11.1262 19.2262C10.6424 19.0238 10.1924 18.765 9.74244 18.4275L8.71869 17.64L7.52619 18.1238L6.09744 18.6975L5.30994 17.3363L6.52494 16.3912L7.52619 15.6038L7.36869 14.3325C7.33494 13.9837 7.31244 13.725 7.31244 13.5C7.31244 13.275 7.33494 13.0163 7.36869 12.6788L7.52619 11.4075L6.52494 10.62L5.30994 9.675L6.09744 8.31375L7.52619 8.8875L8.69619 9.36L9.70869 8.595C10.1924 8.235 10.6537 7.965 11.1149 7.77375L12.3074 7.29L12.4874 6.01875L12.7124 4.5H14.2762L14.4899 6.01875L14.6699 7.29L15.8624 7.77375C16.3462 7.97625 16.7962 8.235 17.2462 8.5725L18.2699 9.36L19.4624 8.87625L20.8912 8.3025L21.6787 9.66375L20.4749 10.62L19.4737 11.4075L19.6312 12.6788ZM13.4999 9C11.0137 9 8.99994 11.0138 8.99994 13.5C8.99994 15.9862 11.0137 18 13.4999 18C15.9862 18 17.9999 15.9862 17.9999 13.5C17.9999 11.0138 15.9862 9 13.4999 9ZM13.4999 15.75C12.2624 15.75 11.2499 14.7375 11.2499 13.5C11.2499 12.2625 12.2624 11.25 13.4999 11.25C14.7374 11.25 15.7499 12.2625 15.7499 13.5C15.7499 14.7375 14.7374 15.75 13.4999 15.75Z"
            fill="#666666"
        />
    </g>
    <defs>
        <clipPath id="clip0_3254_4016">
            <rect width="27" height="27" fill="white" />
        </clipPath>
    </defs>
</svg>