<svg
    width="30"
    height="30"
    viewBox="0 0 40 40"
    fill="none"
    xmlns="http://www.w3.org/2000/svg"
>
    <path
        d="M5 0V40H8.5V38.609C8.5 37.9121 9.24354 37 9.94041 37C10.6373 37 11.5 37.9121 11.5 38.609V40H15V38.609C15 37.9121 15.8032 37 16.5 37C17.1968 37 18 37.9121 18 38.609V40H22V38.609C22 37.9121 22.8032 37 23.5 37C24.1968 37 25 37.9121 25 38.609V40H28.5V38.609C28.5 37.9121 29.3032 37 30 37C30.6969 37 31.5 37.9121 31.5 38.609V40H35V0H31.5V1.39101C31.5 2.08788 30.7565 3 30.0595 3C29.3627 3 28.5 2.08788 28.5 1.39101V0H25V1.39101C25 2.08788 24.1968 3 23.5 3C22.8032 3 22 2.08788 22 1.39101V0H18V1.39101C18 2.08788 17.3437 3 16.6468 3C15.95 3 15 2.08788 15 1.39101V0H11.5V1.39101C11.5 2.08788 10.6373 3 9.94045 3C9.24358 3 8.5 2.08788 8.5 1.39101V0H5ZM9.94045 5C11.3342 5 12.7721 4.0757 13.5 3C14.2279 4.0757 15.253 5 16.6468 5C18.0407 5 19.2721 4.07587 20 3C20.7279 4.07587 21.9594 5 23.3532 5C24.7471 5 25.7721 4.07583 26.5 3C27.2279 4.07587 28.6656 5 30.0595 5C31.0368 5 32.3 4.57892 33 4V36C32.3 35.4211 31.037 34.5632 30.0598 34.5632C28.6658 34.5632 27.2279 35.9242 26.5 37C25.7721 35.9241 24.7473 34.5632 23.3533 34.5632C21.9595 34.5632 20.7279 35.9241 20 37C19.2721 35.9241 18.0408 34.5632 16.6468 34.5632C15.2531 34.5632 14.2279 35.9243 13.5 37C12.7721 35.9243 11.3342 34.5632 9.94041 34.5632C8.96315 34.5632 7.7 35.4211 7 36V4C7.70004 4.57892 8.96319 5 9.94045 5Z"
        fill="#666666"
    />
    <path d="M28.2199 11V9H20H12.1533V11H28.2199Z" fill="#666666" />
    <path d="M28.2199 15H12.1533V17H28.2199V15Z" fill="#666666" />
    <path d="M28.2199 21H12.1533V23.116H28.2199V21Z" fill="#666666" />
    <path d="M28.22 29H17.9485V31H28.22V29Z" fill="#666666" />
</svg>