<svg
    width="24"
    height="24"
    viewBox="0 0 24 24"
    fill="none"
    xmlns="http://www.w3.org/2000/svg"
>
    <g clip-path="url(#clip0_3930_5478)">
        <mask
            id="path-1-outside-1_3930_5478"
            maskUnits="userSpaceOnUse"
            x="-0.702881"
            y="-1"
            width="25"
            height="26"
            fill="black"
        >
            <rect fill="white" x="-0.702881" y="-1" width="25" height="26" />
            <path
                fill-rule="evenodd"
                clip-rule="evenodd"
                d="M17.4532 24.0009H2.50392C1.93644 24.0172 1.38562 23.8079 0.972035 23.419C0.558447 23.0301 0.315771 22.4932 0.297119 21.9258V2.0757C0.315848 1.50834 0.558558 0.971504 0.972138 0.582663C1.38572 0.193822 1.93649 -0.0153575 2.50392 0.000898595H17.4532C18.0208 -0.0155191 18.5717 0.193589 18.9854 0.582447C19.3991 0.971305 19.6419 1.50823 19.6606 2.0757V5.4459C19.6606 5.60431 19.5977 5.75624 19.4857 5.86825C19.3737 5.98027 19.2217 6.0432 19.0633 6.0432C18.9049 6.0432 18.753 5.98027 18.641 5.86825C18.5289 5.75624 18.466 5.60431 18.466 5.4459V2.0757C18.4461 1.82603 18.3286 1.59427 18.1391 1.43055C17.9495 1.26683 17.7031 1.18433 17.4532 1.2009H2.50392C2.25407 1.18434 2.00775 1.26686 1.8183 1.43059C1.62885 1.59432 1.51152 1.82609 1.49172 2.0757V21.9258C1.51145 22.1755 1.62875 22.4073 1.8182 22.5711C2.00766 22.7349 2.25402 22.8175 2.50392 22.8009H17.4532C17.6123 22.8009 17.765 22.8641 17.8775 22.9766C17.99 23.0892 18.0532 23.2418 18.0532 23.4009C18.0532 23.56 17.99 23.7126 17.8775 23.8252C17.765 23.9377 17.6123 24.0009 17.4532 24.0009ZM11.2801 13.2456H8.89062C8.73149 13.2456 8.57888 13.1824 8.46636 13.0699C8.35383 12.9573 8.29062 12.8047 8.29062 12.6456C8.29062 12.4865 8.35383 12.3339 8.46636 12.2213C8.57888 12.1088 8.73149 12.0456 8.89062 12.0456H11.2801C11.4392 12.0456 11.5919 12.1088 11.7044 12.2213C11.8169 12.3339 11.8801 12.4865 11.8801 12.6456C11.8801 12.8047 11.8169 12.9573 11.7044 13.0699C11.5919 13.1824 11.4392 13.2456 11.2801 13.2456ZM5.90412 13.2456H3.51492C3.35579 13.2456 3.20318 13.1824 3.09066 13.0699C2.97813 12.9573 2.91492 12.8047 2.91492 12.6456C2.91492 12.4865 2.97813 12.3339 3.09066 12.2213C3.20318 12.1088 3.35579 12.0456 3.51492 12.0456H5.90412C5.98291 12.0457 6.06092 12.0613 6.13368 12.0915C6.20645 12.1217 6.27255 12.166 6.32821 12.2218C6.38387 12.2775 6.428 12.3437 6.45808 12.4165C6.48816 12.4894 6.5036 12.5674 6.50352 12.6462C6.50344 12.725 6.48784 12.803 6.45762 12.8758C6.42739 12.9485 6.38313 13.0146 6.32736 13.0703C6.27159 13.1259 6.2054 13.1701 6.13258 13.2002C6.05975 13.2302 5.98171 13.2457 5.90292 13.2456H5.90412ZM11.2801 15.6456H8.89062C8.73149 15.6456 8.57888 15.5824 8.46636 15.4699C8.35383 15.3573 8.29062 15.2047 8.29062 15.0456C8.29062 14.8865 8.35383 14.7339 8.46636 14.6213C8.57888 14.5088 8.73149 14.4456 8.89062 14.4456H11.2801C11.4392 14.4456 11.5919 14.5088 11.7044 14.6213C11.8169 14.7339 11.8801 14.8865 11.8801 15.0456C11.8801 15.2047 11.8169 15.3573 11.7044 15.4699C11.5919 15.5824 11.4392 15.6456 11.2801 15.6456ZM5.90412 15.6456H3.51492C3.35579 15.6456 3.20318 15.5824 3.09066 15.4699C2.97813 15.3573 2.91492 15.2047 2.91492 15.0456C2.91492 14.8865 2.97813 14.7339 3.09066 14.6213C3.20318 14.5088 3.35579 14.4456 3.51492 14.4456H5.90412C5.98291 14.4457 6.06092 14.4613 6.13368 14.4915C6.20645 14.5217 6.27255 14.566 6.32821 14.6218C6.38387 14.6775 6.428 14.7437 6.45808 14.8165C6.48816 14.8894 6.5036 14.9674 6.50352 15.0462C6.50344 15.125 6.48784 15.203 6.45762 15.2758C6.42739 15.3485 6.38313 15.4146 6.32736 15.4703C6.27159 15.5259 6.2054 15.5701 6.13258 15.6002C6.05975 15.6302 5.98171 15.6457 5.90292 15.6456H5.90412ZM11.2801 18.0456H8.89062C8.73149 18.0456 8.57888 17.9824 8.46636 17.8699C8.35383 17.7573 8.29062 17.6047 8.29062 17.4456C8.29062 17.2865 8.35383 17.1339 8.46636 17.0213C8.57888 16.9088 8.73149 16.8456 8.89062 16.8456H11.2801C11.4392 16.8456 11.5919 16.9088 11.7044 17.0213C11.8169 17.1339 11.8801 17.2865 11.8801 17.4456C11.8801 17.6047 11.8169 17.7573 11.7044 17.8699C11.5919 17.9824 11.4392 18.0456 11.2801 18.0456ZM5.90412 18.0456H3.51492C3.35579 18.0456 3.20318 17.9824 3.09066 17.8699C2.97813 17.7573 2.91492 17.6047 2.91492 17.4456C2.91492 17.2865 2.97813 17.1339 3.09066 17.0213C3.20318 16.9088 3.35579 16.8456 3.51492 16.8456H5.90412C5.98291 16.8457 6.06092 16.8613 6.13368 16.8915C6.20645 16.9217 6.27255 16.966 6.32821 17.0218C6.38387 17.0775 6.428 17.1437 6.45808 17.2165C6.48816 17.2894 6.5036 17.3674 6.50352 17.4462C6.50344 17.525 6.48784 17.603 6.45762 17.6758C6.42739 17.7485 6.38313 17.8146 6.32736 17.8703C6.27159 17.9259 6.2054 17.9701 6.13258 18.0002C6.05975 18.0302 5.98171 18.0457 5.90292 18.0456H5.90412ZM16.513 6.0456H14.2666C14.1075 6.0456 13.9549 5.98238 13.8424 5.86986C13.7298 5.75734 13.6666 5.60473 13.6666 5.4456C13.6666 5.28647 13.7298 5.13386 13.8424 5.02133C13.9549 4.90881 14.1075 4.8456 14.2666 4.8456H16.513C16.6721 4.84576 16.8247 4.90912 16.9371 5.02176C17.0495 5.13439 17.1126 5.28707 17.1124 5.4462C17.1123 5.60533 17.0489 5.75788 16.9363 5.87029C16.8236 5.9827 16.6709 6.04576 16.5118 6.0456H16.513ZM11.2801 6.0456H8.89062C8.73149 6.0456 8.57888 5.98238 8.46636 5.86986C8.35383 5.75734 8.29062 5.60473 8.29062 5.4456C8.29062 5.28647 8.35383 5.13386 8.46636 5.02133C8.57888 4.90881 8.73149 4.8456 8.89062 4.8456H11.2801C11.4392 4.8456 11.5919 4.90881 11.7044 5.02133C11.8169 5.13386 11.8801 5.28647 11.8801 5.4456C11.8801 5.60473 11.8169 5.75734 11.7044 5.86986C11.5919 5.98238 11.4392 6.0456 11.2801 6.0456ZM5.90412 6.0456H3.51492C3.35579 6.0456 3.20318 5.98238 3.09066 5.86986C2.97813 5.75734 2.91492 5.60473 2.91492 5.4456C2.91492 5.28647 2.97813 5.13386 3.09066 5.02133C3.20318 4.90881 3.35579 4.8456 3.51492 4.8456H5.90412C5.98291 4.84568 6.06092 4.86127 6.13368 4.8915C6.20645 4.92173 6.27255 4.96599 6.32821 5.02176C6.38387 5.07753 6.428 5.14372 6.45808 5.21654C6.48816 5.28937 6.5036 5.3674 6.50352 5.4462C6.50344 5.52499 6.48784 5.603 6.45762 5.67576C6.42739 5.74853 6.38313 5.81463 6.32736 5.87029C6.27159 5.92595 6.2054 5.97008 6.13258 6.00016C6.05975 6.03024 5.98171 6.04568 5.90292 6.0456H5.90412ZM11.2801 8.4456H8.89062C8.73149 8.4456 8.57888 8.38238 8.46636 8.26986C8.35383 8.15734 8.29062 8.00473 8.29062 7.8456C8.29062 7.68647 8.35383 7.53386 8.46636 7.42133C8.57888 7.30881 8.73149 7.2456 8.89062 7.2456H11.2801C11.4392 7.2456 11.5919 7.30881 11.7044 7.42133C11.8169 7.53386 11.8801 7.68647 11.8801 7.8456C11.8801 8.00473 11.8169 8.15734 11.7044 8.26986C11.5919 8.38238 11.4392 8.4456 11.2801 8.4456ZM5.90412 8.4456H3.51492C3.35579 8.4456 3.20318 8.38238 3.09066 8.26986C2.97813 8.15734 2.91492 8.00473 2.91492 7.8456C2.91492 7.68647 2.97813 7.53386 3.09066 7.42133C3.20318 7.30881 3.35579 7.2456 3.51492 7.2456H5.90412C5.98291 7.24568 6.06092 7.26127 6.13368 7.2915C6.20645 7.32173 6.27255 7.36599 6.32821 7.42176C6.38387 7.47753 6.428 7.54372 6.45808 7.61654C6.48816 7.68937 6.5036 7.76741 6.50352 7.8462C6.50344 7.92499 6.48784 8.003 6.45762 8.07576C6.42739 8.14853 6.38313 8.21463 6.32736 8.27029C6.27159 8.32595 6.2054 8.37008 6.13258 8.40016C6.05975 8.43024 5.98171 8.44568 5.90292 8.4456H5.90412ZM11.2801 10.8456H8.89062C8.73149 10.8456 8.57888 10.7824 8.46636 10.6699C8.35383 10.5573 8.29062 10.4047 8.29062 10.2456C8.29062 10.0865 8.35383 9.93386 8.46636 9.82133C8.57888 9.70881 8.73149 9.6456 8.89062 9.6456H11.2801C11.4392 9.6456 11.5919 9.70881 11.7044 9.82133C11.8169 9.93386 11.8801 10.0865 11.8801 10.2456C11.8801 10.4047 11.8169 10.5573 11.7044 10.6699C11.5919 10.7824 11.4392 10.8456 11.2801 10.8456ZM5.90412 10.8456H3.51492C3.35579 10.8456 3.20318 10.7824 3.09066 10.6699C2.97813 10.5573 2.91492 10.4047 2.91492 10.2456C2.91492 10.0865 2.97813 9.93386 3.09066 9.82133C3.20318 9.70881 3.35579 9.6456 3.51492 9.6456H5.90412C6.06325 9.64576 6.2158 9.70913 6.32821 9.82176C6.44062 9.93439 6.50368 10.0871 6.50352 10.2462C6.50336 10.4053 6.43999 10.5579 6.32736 10.6703C6.21473 10.7827 6.06205 10.8458 5.90292 10.8456H5.90412ZM23.0467 22.089C23.0167 22.089 22.9411 22.0833 22.912 22.0791C19.6033 21.591 16.369 20.6277 16.1356 14.9475H13.6027C13.4904 14.9471 13.3804 14.9152 13.2853 14.8554C13.1902 14.7955 13.1138 14.7102 13.0648 14.6091C13.0159 14.508 12.9962 14.3952 13.0082 14.2835C13.0202 14.1718 13.0633 14.0657 13.1326 13.9773L17.62 8.232C17.6758 8.1605 17.7471 8.10266 17.8286 8.06288C17.9101 8.0231 17.9996 8.00242 18.0903 8.00242C18.1809 8.00242 18.2704 8.0231 18.3519 8.06288C18.4334 8.10266 18.5047 8.1605 18.5605 8.232L23.0473 13.9773C23.1166 14.0657 23.1597 14.1718 23.1717 14.2835C23.1837 14.3952 23.1641 14.508 23.1151 14.6091C23.0661 14.7102 22.9897 14.7955 22.8946 14.8554C22.7995 14.9152 22.6896 14.9471 22.5772 14.9475H20.0218C19.8997 17.9856 21.0613 19.1598 23.4511 20.4114C23.6267 20.5036 23.7664 20.6517 23.8481 20.8323C23.9299 21.0129 23.949 21.2156 23.9024 21.4083C23.8558 21.601 23.7462 21.7727 23.591 21.896C23.4357 22.0193 23.2438 22.0872 23.0455 22.089H23.0467ZM14.8306 13.7475H16.7206C16.879 13.7477 17.0307 13.8107 17.1427 13.9227C17.2547 14.0347 17.3177 14.1865 17.3179 14.3448C17.3362 18.6648 19.0078 19.977 21.3979 20.5743C19.5511 19.2672 18.5944 17.5629 18.8662 14.2977C18.8781 14.148 18.9459 14.0083 19.0562 13.9064C19.1664 13.8044 19.311 13.7477 19.4611 13.7475H21.3511L18.0901 9.5745L14.8306 13.7475Z"
            />
        </mask>
        <path
            fill-rule="evenodd"
            clip-rule="evenodd"
            d="M17.4532 24.0009H2.50392C1.93644 24.0172 1.38562 23.8079 0.972035 23.419C0.558447 23.0301 0.315771 22.4932 0.297119 21.9258V2.0757C0.315848 1.50834 0.558558 0.971504 0.972138 0.582663C1.38572 0.193822 1.93649 -0.0153575 2.50392 0.000898595H17.4532C18.0208 -0.0155191 18.5717 0.193589 18.9854 0.582447C19.3991 0.971305 19.6419 1.50823 19.6606 2.0757V5.4459C19.6606 5.60431 19.5977 5.75624 19.4857 5.86825C19.3737 5.98027 19.2217 6.0432 19.0633 6.0432C18.9049 6.0432 18.753 5.98027 18.641 5.86825C18.5289 5.75624 18.466 5.60431 18.466 5.4459V2.0757C18.4461 1.82603 18.3286 1.59427 18.1391 1.43055C17.9495 1.26683 17.7031 1.18433 17.4532 1.2009H2.50392C2.25407 1.18434 2.00775 1.26686 1.8183 1.43059C1.62885 1.59432 1.51152 1.82609 1.49172 2.0757V21.9258C1.51145 22.1755 1.62875 22.4073 1.8182 22.5711C2.00766 22.7349 2.25402 22.8175 2.50392 22.8009H17.4532C17.6123 22.8009 17.765 22.8641 17.8775 22.9766C17.99 23.0892 18.0532 23.2418 18.0532 23.4009C18.0532 23.56 17.99 23.7126 17.8775 23.8252C17.765 23.9377 17.6123 24.0009 17.4532 24.0009ZM11.2801 13.2456H8.89062C8.73149 13.2456 8.57888 13.1824 8.46636 13.0699C8.35383 12.9573 8.29062 12.8047 8.29062 12.6456C8.29062 12.4865 8.35383 12.3339 8.46636 12.2213C8.57888 12.1088 8.73149 12.0456 8.89062 12.0456H11.2801C11.4392 12.0456 11.5919 12.1088 11.7044 12.2213C11.8169 12.3339 11.8801 12.4865 11.8801 12.6456C11.8801 12.8047 11.8169 12.9573 11.7044 13.0699C11.5919 13.1824 11.4392 13.2456 11.2801 13.2456ZM5.90412 13.2456H3.51492C3.35579 13.2456 3.20318 13.1824 3.09066 13.0699C2.97813 12.9573 2.91492 12.8047 2.91492 12.6456C2.91492 12.4865 2.97813 12.3339 3.09066 12.2213C3.20318 12.1088 3.35579 12.0456 3.51492 12.0456H5.90412C5.98291 12.0457 6.06092 12.0613 6.13368 12.0915C6.20645 12.1217 6.27255 12.166 6.32821 12.2218C6.38387 12.2775 6.428 12.3437 6.45808 12.4165C6.48816 12.4894 6.5036 12.5674 6.50352 12.6462C6.50344 12.725 6.48784 12.803 6.45762 12.8758C6.42739 12.9485 6.38313 13.0146 6.32736 13.0703C6.27159 13.1259 6.2054 13.1701 6.13258 13.2002C6.05975 13.2302 5.98171 13.2457 5.90292 13.2456H5.90412ZM11.2801 15.6456H8.89062C8.73149 15.6456 8.57888 15.5824 8.46636 15.4699C8.35383 15.3573 8.29062 15.2047 8.29062 15.0456C8.29062 14.8865 8.35383 14.7339 8.46636 14.6213C8.57888 14.5088 8.73149 14.4456 8.89062 14.4456H11.2801C11.4392 14.4456 11.5919 14.5088 11.7044 14.6213C11.8169 14.7339 11.8801 14.8865 11.8801 15.0456C11.8801 15.2047 11.8169 15.3573 11.7044 15.4699C11.5919 15.5824 11.4392 15.6456 11.2801 15.6456ZM5.90412 15.6456H3.51492C3.35579 15.6456 3.20318 15.5824 3.09066 15.4699C2.97813 15.3573 2.91492 15.2047 2.91492 15.0456C2.91492 14.8865 2.97813 14.7339 3.09066 14.6213C3.20318 14.5088 3.35579 14.4456 3.51492 14.4456H5.90412C5.98291 14.4457 6.06092 14.4613 6.13368 14.4915C6.20645 14.5217 6.27255 14.566 6.32821 14.6218C6.38387 14.6775 6.428 14.7437 6.45808 14.8165C6.48816 14.8894 6.5036 14.9674 6.50352 15.0462C6.50344 15.125 6.48784 15.203 6.45762 15.2758C6.42739 15.3485 6.38313 15.4146 6.32736 15.4703C6.27159 15.5259 6.2054 15.5701 6.13258 15.6002C6.05975 15.6302 5.98171 15.6457 5.90292 15.6456H5.90412ZM11.2801 18.0456H8.89062C8.73149 18.0456 8.57888 17.9824 8.46636 17.8699C8.35383 17.7573 8.29062 17.6047 8.29062 17.4456C8.29062 17.2865 8.35383 17.1339 8.46636 17.0213C8.57888 16.9088 8.73149 16.8456 8.89062 16.8456H11.2801C11.4392 16.8456 11.5919 16.9088 11.7044 17.0213C11.8169 17.1339 11.8801 17.2865 11.8801 17.4456C11.8801 17.6047 11.8169 17.7573 11.7044 17.8699C11.5919 17.9824 11.4392 18.0456 11.2801 18.0456ZM5.90412 18.0456H3.51492C3.35579 18.0456 3.20318 17.9824 3.09066 17.8699C2.97813 17.7573 2.91492 17.6047 2.91492 17.4456C2.91492 17.2865 2.97813 17.1339 3.09066 17.0213C3.20318 16.9088 3.35579 16.8456 3.51492 16.8456H5.90412C5.98291 16.8457 6.06092 16.8613 6.13368 16.8915C6.20645 16.9217 6.27255 16.966 6.32821 17.0218C6.38387 17.0775 6.428 17.1437 6.45808 17.2165C6.48816 17.2894 6.5036 17.3674 6.50352 17.4462C6.50344 17.525 6.48784 17.603 6.45762 17.6758C6.42739 17.7485 6.38313 17.8146 6.32736 17.8703C6.27159 17.9259 6.2054 17.9701 6.13258 18.0002C6.05975 18.0302 5.98171 18.0457 5.90292 18.0456H5.90412ZM16.513 6.0456H14.2666C14.1075 6.0456 13.9549 5.98238 13.8424 5.86986C13.7298 5.75734 13.6666 5.60473 13.6666 5.4456C13.6666 5.28647 13.7298 5.13386 13.8424 5.02133C13.9549 4.90881 14.1075 4.8456 14.2666 4.8456H16.513C16.6721 4.84576 16.8247 4.90912 16.9371 5.02176C17.0495 5.13439 17.1126 5.28707 17.1124 5.4462C17.1123 5.60533 17.0489 5.75788 16.9363 5.87029C16.8236 5.9827 16.6709 6.04576 16.5118 6.0456H16.513ZM11.2801 6.0456H8.89062C8.73149 6.0456 8.57888 5.98238 8.46636 5.86986C8.35383 5.75734 8.29062 5.60473 8.29062 5.4456C8.29062 5.28647 8.35383 5.13386 8.46636 5.02133C8.57888 4.90881 8.73149 4.8456 8.89062 4.8456H11.2801C11.4392 4.8456 11.5919 4.90881 11.7044 5.02133C11.8169 5.13386 11.8801 5.28647 11.8801 5.4456C11.8801 5.60473 11.8169 5.75734 11.7044 5.86986C11.5919 5.98238 11.4392 6.0456 11.2801 6.0456ZM5.90412 6.0456H3.51492C3.35579 6.0456 3.20318 5.98238 3.09066 5.86986C2.97813 5.75734 2.91492 5.60473 2.91492 5.4456C2.91492 5.28647 2.97813 5.13386 3.09066 5.02133C3.20318 4.90881 3.35579 4.8456 3.51492 4.8456H5.90412C5.98291 4.84568 6.06092 4.86127 6.13368 4.8915C6.20645 4.92173 6.27255 4.96599 6.32821 5.02176C6.38387 5.07753 6.428 5.14372 6.45808 5.21654C6.48816 5.28937 6.5036 5.3674 6.50352 5.4462C6.50344 5.52499 6.48784 5.603 6.45762 5.67576C6.42739 5.74853 6.38313 5.81463 6.32736 5.87029C6.27159 5.92595 6.2054 5.97008 6.13258 6.00016C6.05975 6.03024 5.98171 6.04568 5.90292 6.0456H5.90412ZM11.2801 8.4456H8.89062C8.73149 8.4456 8.57888 8.38238 8.46636 8.26986C8.35383 8.15734 8.29062 8.00473 8.29062 7.8456C8.29062 7.68647 8.35383 7.53386 8.46636 7.42133C8.57888 7.30881 8.73149 7.2456 8.89062 7.2456H11.2801C11.4392 7.2456 11.5919 7.30881 11.7044 7.42133C11.8169 7.53386 11.8801 7.68647 11.8801 7.8456C11.8801 8.00473 11.8169 8.15734 11.7044 8.26986C11.5919 8.38238 11.4392 8.4456 11.2801 8.4456ZM5.90412 8.4456H3.51492C3.35579 8.4456 3.20318 8.38238 3.09066 8.26986C2.97813 8.15734 2.91492 8.00473 2.91492 7.8456C2.91492 7.68647 2.97813 7.53386 3.09066 7.42133C3.20318 7.30881 3.35579 7.2456 3.51492 7.2456H5.90412C5.98291 7.24568 6.06092 7.26127 6.13368 7.2915C6.20645 7.32173 6.27255 7.36599 6.32821 7.42176C6.38387 7.47753 6.428 7.54372 6.45808 7.61654C6.48816 7.68937 6.5036 7.76741 6.50352 7.8462C6.50344 7.92499 6.48784 8.003 6.45762 8.07576C6.42739 8.14853 6.38313 8.21463 6.32736 8.27029C6.27159 8.32595 6.2054 8.37008 6.13258 8.40016C6.05975 8.43024 5.98171 8.44568 5.90292 8.4456H5.90412ZM11.2801 10.8456H8.89062C8.73149 10.8456 8.57888 10.7824 8.46636 10.6699C8.35383 10.5573 8.29062 10.4047 8.29062 10.2456C8.29062 10.0865 8.35383 9.93386 8.46636 9.82133C8.57888 9.70881 8.73149 9.6456 8.89062 9.6456H11.2801C11.4392 9.6456 11.5919 9.70881 11.7044 9.82133C11.8169 9.93386 11.8801 10.0865 11.8801 10.2456C11.8801 10.4047 11.8169 10.5573 11.7044 10.6699C11.5919 10.7824 11.4392 10.8456 11.2801 10.8456ZM5.90412 10.8456H3.51492C3.35579 10.8456 3.20318 10.7824 3.09066 10.6699C2.97813 10.5573 2.91492 10.4047 2.91492 10.2456C2.91492 10.0865 2.97813 9.93386 3.09066 9.82133C3.20318 9.70881 3.35579 9.6456 3.51492 9.6456H5.90412C6.06325 9.64576 6.2158 9.70913 6.32821 9.82176C6.44062 9.93439 6.50368 10.0871 6.50352 10.2462C6.50336 10.4053 6.43999 10.5579 6.32736 10.6703C6.21473 10.7827 6.06205 10.8458 5.90292 10.8456H5.90412ZM23.0467 22.089C23.0167 22.089 22.9411 22.0833 22.912 22.0791C19.6033 21.591 16.369 20.6277 16.1356 14.9475H13.6027C13.4904 14.9471 13.3804 14.9152 13.2853 14.8554C13.1902 14.7955 13.1138 14.7102 13.0648 14.6091C13.0159 14.508 12.9962 14.3952 13.0082 14.2835C13.0202 14.1718 13.0633 14.0657 13.1326 13.9773L17.62 8.232C17.6758 8.1605 17.7471 8.10266 17.8286 8.06288C17.9101 8.0231 17.9996 8.00242 18.0903 8.00242C18.1809 8.00242 18.2704 8.0231 18.3519 8.06288C18.4334 8.10266 18.5047 8.1605 18.5605 8.232L23.0473 13.9773C23.1166 14.0657 23.1597 14.1718 23.1717 14.2835C23.1837 14.3952 23.1641 14.508 23.1151 14.6091C23.0661 14.7102 22.9897 14.7955 22.8946 14.8554C22.7995 14.9152 22.6896 14.9471 22.5772 14.9475H20.0218C19.8997 17.9856 21.0613 19.1598 23.4511 20.4114C23.6267 20.5036 23.7664 20.6517 23.8481 20.8323C23.9299 21.0129 23.949 21.2156 23.9024 21.4083C23.8558 21.601 23.7462 21.7727 23.591 21.896C23.4357 22.0193 23.2438 22.0872 23.0455 22.089H23.0467ZM14.8306 13.7475H16.7206C16.879 13.7477 17.0307 13.8107 17.1427 13.9227C17.2547 14.0347 17.3177 14.1865 17.3179 14.3448C17.3362 18.6648 19.0078 19.977 21.3979 20.5743C19.5511 19.2672 18.5944 17.5629 18.8662 14.2977C18.8781 14.148 18.9459 14.0083 19.0562 13.9064C19.1664 13.8044 19.311 13.7477 19.4611 13.7475H21.3511L18.0901 9.5745L14.8306 13.7475Z"
            fill="#666666"
        />
        <path
            fill-rule="evenodd"
            clip-rule="evenodd"
            d="M17.4532 24.0009H2.50392C1.93644 24.0172 1.38562 23.8079 0.972035 23.419C0.558447 23.0301 0.315771 22.4932 0.297119 21.9258V2.0757C0.315848 1.50834 0.558558 0.971504 0.972138 0.582663C1.38572 0.193822 1.93649 -0.0153575 2.50392 0.000898595H17.4532C18.0208 -0.0155191 18.5717 0.193589 18.9854 0.582447C19.3991 0.971305 19.6419 1.50823 19.6606 2.0757V5.4459C19.6606 5.60431 19.5977 5.75624 19.4857 5.86825C19.3737 5.98027 19.2217 6.0432 19.0633 6.0432C18.9049 6.0432 18.753 5.98027 18.641 5.86825C18.5289 5.75624 18.466 5.60431 18.466 5.4459V2.0757C18.4461 1.82603 18.3286 1.59427 18.1391 1.43055C17.9495 1.26683 17.7031 1.18433 17.4532 1.2009H2.50392C2.25407 1.18434 2.00775 1.26686 1.8183 1.43059C1.62885 1.59432 1.51152 1.82609 1.49172 2.0757V21.9258C1.51145 22.1755 1.62875 22.4073 1.8182 22.5711C2.00766 22.7349 2.25402 22.8175 2.50392 22.8009H17.4532C17.6123 22.8009 17.765 22.8641 17.8775 22.9766C17.99 23.0892 18.0532 23.2418 18.0532 23.4009C18.0532 23.56 17.99 23.7126 17.8775 23.8252C17.765 23.9377 17.6123 24.0009 17.4532 24.0009ZM11.2801 13.2456H8.89062C8.73149 13.2456 8.57888 13.1824 8.46636 13.0699C8.35383 12.9573 8.29062 12.8047 8.29062 12.6456C8.29062 12.4865 8.35383 12.3339 8.46636 12.2213C8.57888 12.1088 8.73149 12.0456 8.89062 12.0456H11.2801C11.4392 12.0456 11.5919 12.1088 11.7044 12.2213C11.8169 12.3339 11.8801 12.4865 11.8801 12.6456C11.8801 12.8047 11.8169 12.9573 11.7044 13.0699C11.5919 13.1824 11.4392 13.2456 11.2801 13.2456ZM5.90412 13.2456H3.51492C3.35579 13.2456 3.20318 13.1824 3.09066 13.0699C2.97813 12.9573 2.91492 12.8047 2.91492 12.6456C2.91492 12.4865 2.97813 12.3339 3.09066 12.2213C3.20318 12.1088 3.35579 12.0456 3.51492 12.0456H5.90412C5.98291 12.0457 6.06092 12.0613 6.13368 12.0915C6.20645 12.1217 6.27255 12.166 6.32821 12.2218C6.38387 12.2775 6.428 12.3437 6.45808 12.4165C6.48816 12.4894 6.5036 12.5674 6.50352 12.6462C6.50344 12.725 6.48784 12.803 6.45762 12.8758C6.42739 12.9485 6.38313 13.0146 6.32736 13.0703C6.27159 13.1259 6.2054 13.1701 6.13258 13.2002C6.05975 13.2302 5.98171 13.2457 5.90292 13.2456H5.90412ZM11.2801 15.6456H8.89062C8.73149 15.6456 8.57888 15.5824 8.46636 15.4699C8.35383 15.3573 8.29062 15.2047 8.29062 15.0456C8.29062 14.8865 8.35383 14.7339 8.46636 14.6213C8.57888 14.5088 8.73149 14.4456 8.89062 14.4456H11.2801C11.4392 14.4456 11.5919 14.5088 11.7044 14.6213C11.8169 14.7339 11.8801 14.8865 11.8801 15.0456C11.8801 15.2047 11.8169 15.3573 11.7044 15.4699C11.5919 15.5824 11.4392 15.6456 11.2801 15.6456ZM5.90412 15.6456H3.51492C3.35579 15.6456 3.20318 15.5824 3.09066 15.4699C2.97813 15.3573 2.91492 15.2047 2.91492 15.0456C2.91492 14.8865 2.97813 14.7339 3.09066 14.6213C3.20318 14.5088 3.35579 14.4456 3.51492 14.4456H5.90412C5.98291 14.4457 6.06092 14.4613 6.13368 14.4915C6.20645 14.5217 6.27255 14.566 6.32821 14.6218C6.38387 14.6775 6.428 14.7437 6.45808 14.8165C6.48816 14.8894 6.5036 14.9674 6.50352 15.0462C6.50344 15.125 6.48784 15.203 6.45762 15.2758C6.42739 15.3485 6.38313 15.4146 6.32736 15.4703C6.27159 15.5259 6.2054 15.5701 6.13258 15.6002C6.05975 15.6302 5.98171 15.6457 5.90292 15.6456H5.90412ZM11.2801 18.0456H8.89062C8.73149 18.0456 8.57888 17.9824 8.46636 17.8699C8.35383 17.7573 8.29062 17.6047 8.29062 17.4456C8.29062 17.2865 8.35383 17.1339 8.46636 17.0213C8.57888 16.9088 8.73149 16.8456 8.89062 16.8456H11.2801C11.4392 16.8456 11.5919 16.9088 11.7044 17.0213C11.8169 17.1339 11.8801 17.2865 11.8801 17.4456C11.8801 17.6047 11.8169 17.7573 11.7044 17.8699C11.5919 17.9824 11.4392 18.0456 11.2801 18.0456ZM5.90412 18.0456H3.51492C3.35579 18.0456 3.20318 17.9824 3.09066 17.8699C2.97813 17.7573 2.91492 17.6047 2.91492 17.4456C2.91492 17.2865 2.97813 17.1339 3.09066 17.0213C3.20318 16.9088 3.35579 16.8456 3.51492 16.8456H5.90412C5.98291 16.8457 6.06092 16.8613 6.13368 16.8915C6.20645 16.9217 6.27255 16.966 6.32821 17.0218C6.38387 17.0775 6.428 17.1437 6.45808 17.2165C6.48816 17.2894 6.5036 17.3674 6.50352 17.4462C6.50344 17.525 6.48784 17.603 6.45762 17.6758C6.42739 17.7485 6.38313 17.8146 6.32736 17.8703C6.27159 17.9259 6.2054 17.9701 6.13258 18.0002C6.05975 18.0302 5.98171 18.0457 5.90292 18.0456H5.90412ZM16.513 6.0456H14.2666C14.1075 6.0456 13.9549 5.98238 13.8424 5.86986C13.7298 5.75734 13.6666 5.60473 13.6666 5.4456C13.6666 5.28647 13.7298 5.13386 13.8424 5.02133C13.9549 4.90881 14.1075 4.8456 14.2666 4.8456H16.513C16.6721 4.84576 16.8247 4.90912 16.9371 5.02176C17.0495 5.13439 17.1126 5.28707 17.1124 5.4462C17.1123 5.60533 17.0489 5.75788 16.9363 5.87029C16.8236 5.9827 16.6709 6.04576 16.5118 6.0456H16.513ZM11.2801 6.0456H8.89062C8.73149 6.0456 8.57888 5.98238 8.46636 5.86986C8.35383 5.75734 8.29062 5.60473 8.29062 5.4456C8.29062 5.28647 8.35383 5.13386 8.46636 5.02133C8.57888 4.90881 8.73149 4.8456 8.89062 4.8456H11.2801C11.4392 4.8456 11.5919 4.90881 11.7044 5.02133C11.8169 5.13386 11.8801 5.28647 11.8801 5.4456C11.8801 5.60473 11.8169 5.75734 11.7044 5.86986C11.5919 5.98238 11.4392 6.0456 11.2801 6.0456ZM5.90412 6.0456H3.51492C3.35579 6.0456 3.20318 5.98238 3.09066 5.86986C2.97813 5.75734 2.91492 5.60473 2.91492 5.4456C2.91492 5.28647 2.97813 5.13386 3.09066 5.02133C3.20318 4.90881 3.35579 4.8456 3.51492 4.8456H5.90412C5.98291 4.84568 6.06092 4.86127 6.13368 4.8915C6.20645 4.92173 6.27255 4.96599 6.32821 5.02176C6.38387 5.07753 6.428 5.14372 6.45808 5.21654C6.48816 5.28937 6.5036 5.3674 6.50352 5.4462C6.50344 5.52499 6.48784 5.603 6.45762 5.67576C6.42739 5.74853 6.38313 5.81463 6.32736 5.87029C6.27159 5.92595 6.2054 5.97008 6.13258 6.00016C6.05975 6.03024 5.98171 6.04568 5.90292 6.0456H5.90412ZM11.2801 8.4456H8.89062C8.73149 8.4456 8.57888 8.38238 8.46636 8.26986C8.35383 8.15734 8.29062 8.00473 8.29062 7.8456C8.29062 7.68647 8.35383 7.53386 8.46636 7.42133C8.57888 7.30881 8.73149 7.2456 8.89062 7.2456H11.2801C11.4392 7.2456 11.5919 7.30881 11.7044 7.42133C11.8169 7.53386 11.8801 7.68647 11.8801 7.8456C11.8801 8.00473 11.8169 8.15734 11.7044 8.26986C11.5919 8.38238 11.4392 8.4456 11.2801 8.4456ZM5.90412 8.4456H3.51492C3.35579 8.4456 3.20318 8.38238 3.09066 8.26986C2.97813 8.15734 2.91492 8.00473 2.91492 7.8456C2.91492 7.68647 2.97813 7.53386 3.09066 7.42133C3.20318 7.30881 3.35579 7.2456 3.51492 7.2456H5.90412C5.98291 7.24568 6.06092 7.26127 6.13368 7.2915C6.20645 7.32173 6.27255 7.36599 6.32821 7.42176C6.38387 7.47753 6.428 7.54372 6.45808 7.61654C6.48816 7.68937 6.5036 7.76741 6.50352 7.8462C6.50344 7.92499 6.48784 8.003 6.45762 8.07576C6.42739 8.14853 6.38313 8.21463 6.32736 8.27029C6.27159 8.32595 6.2054 8.37008 6.13258 8.40016C6.05975 8.43024 5.98171 8.44568 5.90292 8.4456H5.90412ZM11.2801 10.8456H8.89062C8.73149 10.8456 8.57888 10.7824 8.46636 10.6699C8.35383 10.5573 8.29062 10.4047 8.29062 10.2456C8.29062 10.0865 8.35383 9.93386 8.46636 9.82133C8.57888 9.70881 8.73149 9.6456 8.89062 9.6456H11.2801C11.4392 9.6456 11.5919 9.70881 11.7044 9.82133C11.8169 9.93386 11.8801 10.0865 11.8801 10.2456C11.8801 10.4047 11.8169 10.5573 11.7044 10.6699C11.5919 10.7824 11.4392 10.8456 11.2801 10.8456ZM5.90412 10.8456H3.51492C3.35579 10.8456 3.20318 10.7824 3.09066 10.6699C2.97813 10.5573 2.91492 10.4047 2.91492 10.2456C2.91492 10.0865 2.97813 9.93386 3.09066 9.82133C3.20318 9.70881 3.35579 9.6456 3.51492 9.6456H5.90412C6.06325 9.64576 6.2158 9.70913 6.32821 9.82176C6.44062 9.93439 6.50368 10.0871 6.50352 10.2462C6.50336 10.4053 6.43999 10.5579 6.32736 10.6703C6.21473 10.7827 6.06205 10.8458 5.90292 10.8456H5.90412ZM23.0467 22.089C23.0167 22.089 22.9411 22.0833 22.912 22.0791C19.6033 21.591 16.369 20.6277 16.1356 14.9475H13.6027C13.4904 14.9471 13.3804 14.9152 13.2853 14.8554C13.1902 14.7955 13.1138 14.7102 13.0648 14.6091C13.0159 14.508 12.9962 14.3952 13.0082 14.2835C13.0202 14.1718 13.0633 14.0657 13.1326 13.9773L17.62 8.232C17.6758 8.1605 17.7471 8.10266 17.8286 8.06288C17.9101 8.0231 17.9996 8.00242 18.0903 8.00242C18.1809 8.00242 18.2704 8.0231 18.3519 8.06288C18.4334 8.10266 18.5047 8.1605 18.5605 8.232L23.0473 13.9773C23.1166 14.0657 23.1597 14.1718 23.1717 14.2835C23.1837 14.3952 23.1641 14.508 23.1151 14.6091C23.0661 14.7102 22.9897 14.7955 22.8946 14.8554C22.7995 14.9152 22.6896 14.9471 22.5772 14.9475H20.0218C19.8997 17.9856 21.0613 19.1598 23.4511 20.4114C23.6267 20.5036 23.7664 20.6517 23.8481 20.8323C23.9299 21.0129 23.949 21.2156 23.9024 21.4083C23.8558 21.601 23.7462 21.7727 23.591 21.896C23.4357 22.0193 23.2438 22.0872 23.0455 22.089H23.0467ZM14.8306 13.7475H16.7206C16.879 13.7477 17.0307 13.8107 17.1427 13.9227C17.2547 14.0347 17.3177 14.1865 17.3179 14.3448C17.3362 18.6648 19.0078 19.977 21.3979 20.5743C19.5511 19.2672 18.5944 17.5629 18.8662 14.2977C18.8781 14.148 18.9459 14.0083 19.0562 13.9064C19.1664 13.8044 19.311 13.7477 19.4611 13.7475H21.3511L18.0901 9.5745L14.8306 13.7475Z"
            stroke="#666666"
            stroke-width="0.6"
            mask="url(#path-1-outside-1_3930_5478)"
        />
    </g>
    <defs>
        <clipPath id="clip0_3930_5478">
            <rect width="24" height="24" fill="white" />
        </clipPath>
    </defs>
</svg>